<?xml version="1.0" standalone="no"?>
<!DOCTYPE svg PUBLIC "-//W3C//DTD SVG 20010904//EN"
 "http://www.w3.org/TR/2001/REC-SVG-20010904/DTD/svg10.dtd">
<svg version="1.0" xmlns="http://www.w3.org/2000/svg"
 width="1000.000000pt" height="1000.000000pt" viewBox="0 0 1000.000000 1000.000000"
 preserveAspectRatio="xMidYMid meet">
<metadata>
Created by potrace 1.14, written by Peter Selinger 2001-2017
</metadata>
<g transform="translate(0.000000,1000.000000) scale(0.100000,-0.100000)"
fill="#000000" stroke="none">
<path d="M0 5000 l0 -5000 5000 0 5000 0 0 5000 0 5000 -5000 0 -5000 0 0
-5000z m8697 3485 c20 -9 52 -27 70 -41 36 -27 182 -238 214 -308 40 -89 13
-213 -62 -282 -19 -17 -289 -196 -601 -396 l-567 -365 72 -28 c635 -248 1019
-591 1137 -1015 40 -143 41 -179 38 -1585 -3 -1264 -4 -1364 -21 -1419 -96
-320 -333 -586 -743 -834 -103 -62 -336 -182 -354 -182 -7 0 -10 263 -10 793
0 466 -4 816 -10 851 -18 114 -97 224 -196 274 -201 102 -443 -2 -517 -222
-15 -45 -17 -140 -17 -1007 l0 -958 -42 -11 c-24 -6 -74 -20 -113 -30 -180
-49 -511 -112 -785 -150 -238 -32 -648 -70 -777 -70 l-43 0 0 820 c0 568 -3
835 -11 872 -25 115 -104 214 -214 265 -51 23 -73 28 -145 28 -72 0 -94 -5
-145 -28 -110 -51 -189 -150 -214 -265 -8 -37 -11 -304 -11 -872 l0 -820 -42
0 c-130 0 -540 38 -778 70 -274 38 -605 101 -785 150 -38 10 -89 24 -112 30
l-43 11 0 953 c0 1035 1 1007 -55 1097 -59 92 -167 162 -273 175 -188 23 -370
-118 -402 -312 -6 -35 -10 -385 -10 -851 0 -530 -3 -793 -10 -793 -18 0 -251
120 -354 182 -410 248 -647 514 -743 834 -17 55 -18 155 -21 1424 -3 1503 -5
1459 58 1646 87 255 290 495 581 684 649 421 1829 677 3209 697 602 8 1194
-32 1730 -118 69 -11 136 -21 150 -22 18 -1 277 161 890 557 476 307 881 565
900 572 48 18 133 17 177 -1z"/>
<path d="M4555 6733 c-945 -41 -1814 -217 -2316 -469 -217 -108 -383 -247
-444 -369 -26 -52 -30 -71 -30 -145 0 -77 3 -92 33 -153 140 -283 703 -543
1507 -696 1034 -197 2356 -197 3390 0 804 153 1367 413 1507 696 29 60 33 77
33 148 0 71 -4 88 -33 148 -121 245 -529 464 -1156 621 l-138 34 -931 -600
c-512 -330 -946 -607 -966 -616 -46 -19 -145 -19 -192 2 -62 26 -99 66 -189
202 -100 151 -118 202 -101 284 14 67 31 97 78 141 21 20 285 195 586 389 301
194 544 356 540 360 -23 21 -851 37 -1178 23z"/>
</g>
</svg>
